<svg xmlns="http://www.w3.org/2000/svg" viewBox="0 0 110 32" width="110" height="32" fill="none">
  <rect x="0.5" y="0.5" width="109" height="31" rx="6" fill="#161B22" stroke="#30363D" />
  <path d="M 19 8 C 15.13 8 12 11.13 12 15 C 12 18.1 14 20.72 16.79 21.65 C 17.14 21.71 17.27 21.5 17.27 21.32 C 17.27 21.15 17.26 20.6 17.26 19.93 C 15.31 20.35 14.9 19.1 14.9 19.1 C 14.58 18.28 14.12 18.07 14.12 18.07 C 13.48 17.63 14.17 17.64 14.17 17.64 C 14.88 17.69 15.25 18.37 15.25 18.37 C 15.88 19.45 16.9 19.14 17.3 18.96 C 17.36 18.5 17.55 18.19 17.75 18.02 C 16.19 17.84 14.55 17.24 14.55 14.55 C 14.55 13.79 14.82 13.16 15.27 12.67 C 15.2 12.5 14.95 11.79 15.34 10.84 C 15.34 10.84 15.92 10.65 17.26 11.55 C 17.82 11.39 18.41 11.31 19.01 11.31 C 19.61 11.31 20.2 11.39 20.76 11.55 C 22.1 10.65 22.68 10.84 22.68 10.84 C 23.07 11.79 22.82 12.5 22.75 12.67 C 23.2 13.16 23.47 13.79 23.47 14.55 C 23.47 17.25 21.82 17.84 20.25 18.01 C 20.51 18.23 20.73 18.66 20.73 19.32 C 20.73 20.26 20.72 21.02 20.72 21.26 C 20.72 21.45 20.85 21.67 21.21 21.6 C 24 20.67 26 18.06 26 14.96 C 26 11.13 22.87 8 19 8 Z" fill="#C9D1D9" />
  <text x="36" y="20.5" fill="#F0F6FC" font-family="-apple-system, BlinkMacSystemFont, 'Segoe UI', sans-serif" font-size="12.5" font-weight="500">GitHub</text>
</svg>
